<svg xmlns="http://www.w3.org/2000/svg" xmlns:xlink="http://www.w3.org/1999/xlink" width="500" zoomAndPan="magnify" viewBox="0 0 375 374.999991" height="500" preserveAspectRatio="xMidYMid meet" version="1.0"><defs><g/></defs><rect x="-37.5" width="450" fill="#ffffff" y="-37.499999" height="449.999989" fill-opacity="1"/><rect x="-37.5" width="450" fill="#e8e8e8" y="-37.499999" height="449.999989" fill-opacity="1"/><g fill="#ff914d" fill-opacity="1"><g transform="translate(109.268668, 171.561812)"><g><path d="M 37.515625 1.730469 C 57.601562 1.730469 69.488281 -7.734375 69.488281 -23.664062 C 69.488281 -37.054688 60.832031 -44.902344 41.207031 -49.289062 C 30.820312 -51.597656 27.011719 -54.136719 27.011719 -58.292969 C 27.011719 -62.21875 30.472656 -64.640625 35.898438 -64.640625 C 42.363281 -64.640625 46.054688 -61.292969 46.054688 -55.175781 L 67.988281 -55.175781 C 67.988281 -71.796875 55.292969 -82.53125 35.4375 -82.53125 C 16.390625 -82.53125 4.617188 -73.066406 4.617188 -57.832031 C 4.617188 -44.210938 13.503906 -35.785156 31.742188 -32.320312 C 41.554688 -30.359375 46.289062 -27.355469 46.289062 -22.738281 C 46.289062 -18.699219 42.824219 -16.390625 37.167969 -16.390625 C 30.472656 -16.390625 26.550781 -19.96875 26.550781 -26.203125 L 4.039062 -26.203125 C 4.039062 -8.773438 16.507812 1.730469 37.515625 1.730469 Z M 37.515625 1.730469 "/></g></g></g><g fill="#2e2e2e" fill-opacity="1"><g transform="translate(91.572958, 260.861828)"><g><path d="M 7.628906 0 L 28.253906 0 L 28.253906 -36.605469 L 42.175781 -17.117188 L 55.683594 -17.117188 L 69.5 -36.503906 L 69.5 0 L 90.121094 0 L 90.121094 -72.179688 L 73.210938 -72.179688 L 48.875 -37.84375 L 24.644531 -72.179688 L 7.628906 -72.179688 Z M 7.628906 0 "/></g></g></g><g fill="#2e2e2e" fill-opacity="1"><g transform="translate(268.214541, 176.681355)"><g><path d="M 0 -8.164062 L 0 -30.445312 L -77.21875 -30.445312 L -77.21875 -8.164062 Z M 0 -8.164062 "/></g></g></g><g fill="#000000" fill-opacity="1"><g transform="translate(265.026494, 265.554407)"><g><path d="M 1.605469 -44.375 C 1.605469 -68.21875 -14.542969 -85.113281 -37.425781 -85.113281 C -60.304688 -85.113281 -76.453125 -68.21875 -76.453125 -44.375 C -76.453125 -20.53125 -60.304688 -3.636719 -37.425781 -3.636719 C -14.542969 -3.636719 1.605469 -20.53125 1.605469 -44.375 Z M -37.425781 -25.554688 C -48.652344 -25.554688 -56.457031 -33.359375 -56.457031 -44.375 C -56.457031 -55.496094 -48.652344 -63.191406 -37.425781 -63.191406 C -26.195312 -63.191406 -18.390625 -55.496094 -18.390625 -44.375 C -18.390625 -33.359375 -26.195312 -25.554688 -37.425781 -25.554688 Z M -37.425781 -25.554688 "/></g></g></g></svg>