<svg xmlns="http://www.w3.org/2000/svg" xmlns:xlink="http://www.w3.org/1999/xlink" width="500" zoomAndPan="magnify" viewBox="0 0 375 374.999991" height="500" preserveAspectRatio="xMidYMid meet" version="1.0"><defs><g/><clipPath id="7174f2a6b5"><path d="M 8.753906 -3.40625 L 381.746094 -3.40625 C 386.320312 -3.40625 390.707031 -1.589844 393.941406 1.644531 C 397.175781 4.878906 398.996094 9.269531 398.996094 13.84375 L 398.996094 368.746094 C 398.996094 373.320312 397.175781 377.707031 393.941406 380.941406 C 390.707031 384.175781 386.320312 385.996094 381.746094 385.996094 L 8.753906 385.996094 C 4.179688 385.996094 -0.207031 384.175781 -3.445312 380.941406 C -6.679688 377.707031 -8.496094 373.320312 -8.496094 368.746094 L -8.496094 13.84375 C -8.496094 9.269531 -6.679688 4.878906 -3.445312 1.644531 C -0.207031 -1.589844 4.179688 -3.40625 8.753906 -3.40625 Z M 8.753906 -3.40625 " clip-rule="nonzero"/></clipPath></defs><rect x="-37.5" width="450" fill="#ffffff" y="-37.499999" height="449.999989" fill-opacity="1"/><rect x="-37.5" width="450" fill="#ffffff" y="-37.499999" height="449.999989" fill-opacity="1"/><g clip-path="url(#7174f2a6b5)"><rect x="-37.5" width="450" fill="#ff914d" y="-37.499999" height="449.999989" fill-opacity="1"/></g><g fill="#ffffff" fill-opacity="1"><g transform="translate(57.052044, 169.231474)"><g><path d="M 58.40625 2.695312 C 89.675781 2.695312 108.1875 -12.039062 108.1875 -36.839844 C 108.1875 -57.6875 94.710938 -69.910156 64.15625 -76.738281 C 47.984375 -80.332031 42.054688 -84.285156 42.054688 -90.757812 C 42.054688 -96.867188 47.445312 -100.640625 55.890625 -100.640625 C 65.957031 -100.640625 71.707031 -95.429688 71.707031 -85.902344 L 105.851562 -85.902344 C 105.851562 -111.78125 86.082031 -128.496094 55.171875 -128.496094 C 25.519531 -128.496094 7.1875 -113.757812 7.1875 -90.039062 C 7.1875 -68.832031 21.027344 -55.710938 49.421875 -50.320312 C 64.699219 -47.265625 72.066406 -42.59375 72.066406 -35.402344 C 72.066406 -29.113281 66.675781 -25.519531 57.867188 -25.519531 C 47.445312 -25.519531 41.335938 -31.089844 41.335938 -40.796875 L 6.289062 -40.796875 C 6.289062 -13.660156 25.699219 2.695312 58.40625 2.695312 Z M 58.40625 2.695312 "/></g></g></g><g fill="#2e2e2e" fill-opacity="1"><g transform="translate(59.777148, 292.442193)"><g><path d="M 10.113281 0 L 37.441406 0 L 37.441406 -48.511719 L 55.890625 -22.683594 L 73.792969 -22.683594 L 92.105469 -48.375 L 92.105469 0 L 119.433594 0 L 119.433594 -95.65625 L 97.023438 -95.65625 L 64.773438 -50.152344 L 32.660156 -95.65625 L 10.113281 -95.65625 Z M 10.113281 0 "/></g></g></g><g fill="#000000" fill-opacity="1"><g transform="translate(297.087967, 298.028314)"><g><path d="M 2.113281 -58.503906 C 2.113281 -89.945312 -19.171875 -112.21875 -49.34375 -112.21875 C -79.511719 -112.21875 -100.800781 -89.945312 -100.800781 -58.503906 C -100.800781 -27.066406 -79.511719 -4.792969 -49.34375 -4.792969 C -19.171875 -4.792969 2.113281 -27.066406 2.113281 -58.503906 Z M -49.34375 -33.695312 C -64.144531 -33.695312 -74.4375 -43.984375 -74.4375 -58.503906 C -74.4375 -73.167969 -64.144531 -83.316406 -49.34375 -83.316406 C -34.539062 -83.316406 -24.25 -73.167969 -24.25 -58.503906 C -24.25 -43.984375 -34.539062 -33.695312 -49.34375 -33.695312 Z M -49.34375 -33.695312 "/></g></g></g><g fill="#2e2e2e" fill-opacity="1"><g transform="translate(298.224863, 168.924378)"><g><path d="M 0 -11.25 L 0 -41.960938 L -106.425781 -41.960938 L -106.425781 -11.25 Z M 0 -11.25 "/></g></g></g></svg>