<svg xmlns="http://www.w3.org/2000/svg" xmlns:xlink="http://www.w3.org/1999/xlink" width="500" zoomAndPan="magnify" viewBox="0 0 375 374.999991" height="500" preserveAspectRatio="xMidYMid meet" version="1.0"><defs><g/><clipPath id="5dc2f50d80"><path d="M 70.816406 50.859375 L 307.855469 50.859375 L 307.855469 302.507812 L 70.816406 302.507812 Z M 70.816406 50.859375 " clip-rule="nonzero"/></clipPath><clipPath id="230c37fc99"><path d="M 88.066406 50.859375 L 290.605469 50.859375 C 295.179688 50.859375 299.566406 52.679688 302.800781 55.914062 C 306.035156 59.148438 307.855469 63.535156 307.855469 68.109375 L 307.855469 285.257812 C 307.855469 289.832031 306.035156 294.21875 302.800781 297.453125 C 299.566406 300.691406 295.179688 302.507812 290.605469 302.507812 L 88.066406 302.507812 C 83.492188 302.507812 79.105469 300.691406 75.871094 297.453125 C 72.636719 294.21875 70.816406 289.832031 70.816406 285.257812 L 70.816406 68.109375 C 70.816406 63.535156 72.636719 59.148438 75.871094 55.914062 C 79.105469 52.679688 83.492188 50.859375 88.066406 50.859375 Z M 88.066406 50.859375 " clip-rule="nonzero"/></clipPath></defs><rect x="-37.5" width="450" fill="#ffffff" y="-37.499999" height="449.999989" fill-opacity="1"/><rect x="-37.5" width="450" fill="#ffffff" y="-37.499999" height="449.999989" fill-opacity="1"/><g clip-path="url(#5dc2f50d80)"><g clip-path="url(#230c37fc99)"><path fill="#ff914d" d="M 70.816406 50.859375 L 307.855469 50.859375 L 307.855469 302.507812 L 70.816406 302.507812 Z M 70.816406 50.859375 " fill-opacity="1" fill-rule="nonzero"/></g></g><g fill="#ffffff" fill-opacity="1"><g transform="translate(93.435171, 165.161768)"><g><path d="M 45.566406 2.101562 C 69.960938 2.101562 84.402344 -9.394531 84.402344 -28.742188 C 84.402344 -45.003906 73.886719 -54.539062 50.054688 -59.867188 C 37.433594 -62.671875 32.808594 -65.757812 32.808594 -70.804688 C 32.808594 -75.570312 37.015625 -78.515625 43.605469 -78.515625 C 51.453125 -78.515625 55.941406 -74.449219 55.941406 -67.019531 L 82.582031 -67.019531 C 82.582031 -87.207031 67.15625 -100.246094 43.042969 -100.246094 C 19.910156 -100.246094 5.609375 -88.75 5.609375 -70.242188 C 5.609375 -53.699219 16.402344 -43.464844 38.554688 -39.257812 C 50.472656 -36.875 56.222656 -33.226562 56.222656 -27.621094 C 56.222656 -22.714844 52.015625 -19.910156 45.144531 -19.910156 C 37.015625 -19.910156 32.246094 -24.253906 32.246094 -31.828125 L 4.90625 -31.828125 C 4.90625 -10.65625 20.050781 2.101562 45.566406 2.101562 Z M 45.566406 2.101562 "/></g></g></g><g fill="#2e2e2e" fill-opacity="1"><g transform="translate(77.641338, 274.699043)"><g><path d="M 8.71875 0 L 32.28125 0 L 32.28125 -41.824219 L 48.183594 -19.554688 L 63.617188 -19.554688 L 79.402344 -41.703125 L 79.402344 0 L 102.964844 0 L 102.964844 -82.46875 L 83.644531 -82.46875 L 55.84375 -43.234375 L 28.15625 -82.46875 L 8.71875 -82.46875 Z M 8.71875 0 "/></g></g></g><g fill="#000000" fill-opacity="1"><g transform="translate(278.991505, 282.055722)"><g><path d="M 1.828125 -50.53125 C 1.828125 -77.683594 -16.558594 -96.921875 -42.617188 -96.921875 C -68.671875 -96.921875 -87.058594 -77.683594 -87.058594 -50.53125 C -87.058594 -23.378906 -68.671875 -4.140625 -42.617188 -4.140625 C -16.558594 -4.140625 1.828125 -23.378906 1.828125 -50.53125 Z M -42.617188 -29.101562 C -55.398438 -29.101562 -64.289062 -37.988281 -64.289062 -50.53125 C -64.289062 -63.191406 -55.398438 -71.960938 -42.617188 -71.960938 C -29.832031 -71.960938 -20.941406 -63.191406 -20.941406 -50.53125 C -20.941406 -37.988281 -29.832031 -29.101562 -42.617188 -29.101562 Z M -42.617188 -29.101562 "/></g></g></g><g fill="#2e2e2e" fill-opacity="1"><g transform="translate(285.994251, 176.679144)"><g><path d="M 0 -9.558594 L 0 -35.65625 L -90.433594 -35.65625 L -90.433594 -9.558594 Z M 0 -9.558594 "/></g></g></g></svg>