<svg xmlns="http://www.w3.org/2000/svg" xmlns:xlink="http://www.w3.org/1999/xlink" width="500" zoomAndPan="magnify" viewBox="0 0 375 374.999991" height="500" preserveAspectRatio="xMidYMid meet" version="1.0"><defs><g/><clipPath id="0f3d3d0722"><path d="M 11.152344 22.304688 L 363.847656 22.304688 L 363.847656 375 L 11.152344 375 Z M 11.152344 22.304688 " clip-rule="nonzero"/></clipPath><clipPath id="391795c716"><path d="M 187.5 22.304688 C 90.105469 22.304688 11.152344 101.257812 11.152344 198.652344 C 11.152344 296.046875 90.105469 375 187.5 375 C 284.894531 375 363.847656 296.046875 363.847656 198.652344 C 363.847656 101.257812 284.894531 22.304688 187.5 22.304688 Z M 187.5 22.304688 " clip-rule="nonzero"/></clipPath><clipPath id="2c0a9ff22d"><path d="M 256 305 L 268 305 L 268 315.945312 L 256 315.945312 Z M 256 305 " clip-rule="nonzero"/></clipPath><clipPath id="20740e7635"><path d="M 259 294.945312 L 272 294.945312 L 272 305 L 259 305 Z M 259 294.945312 " clip-rule="nonzero"/></clipPath><clipPath id="51653feed1"><path d="M 262 298 L 274.316406 298 L 274.316406 309 L 262 309 Z M 262 298 " clip-rule="nonzero"/></clipPath><clipPath id="48082885e4"><path d="M 266 302 L 274 302 L 274 315.945312 L 266 315.945312 Z M 266 302 " clip-rule="nonzero"/></clipPath><clipPath id="fdf855ad25"><path d="M 253.316406 302 L 266 302 L 266 313 L 253.316406 313 Z M 253.316406 302 " clip-rule="nonzero"/></clipPath><clipPath id="2ec49151f6"><path d="M 253.316406 295 L 262 295 L 262 309 L 253.316406 309 Z M 253.316406 295 " clip-rule="nonzero"/></clipPath></defs><g clip-path="url(#0f3d3d0722)"><g clip-path="url(#391795c716)"><path fill="#03989e" d="M 11.152344 22.304688 L 363.847656 22.304688 L 363.847656 375 L 11.152344 375 Z M 11.152344 22.304688 " fill-opacity="1" fill-rule="nonzero"/></g></g><g fill="#ffffff" fill-opacity="1"><g transform="translate(105.24757, 296.99998)"><g><path d="M 82.390625 2.203125 C 67.503906 2.203125 54.367188 -0.320312 42.984375 -5.375 C 31.597656 -10.425781 22.78125 -17.632812 16.53125 -27 C 10.28125 -36.363281 7.15625 -47.203125 7.15625 -59.515625 L 7.15625 -62.265625 C 7.15625 -65.753906 8.90625 -67.5 12.40625 -67.5 L 52.90625 -67.5 C 56.394531 -67.5 58.140625 -66.582031 58.140625 -64.75 L 58.140625 -61.71875 C 58.140625 -56.757812 60.800781 -52.257812 66.125 -48.21875 C 71.457031 -44.175781 78.160156 -42.15625 86.234375 -42.15625 C 93.035156 -42.15625 97.90625 -43.578125 100.84375 -46.421875 C 103.78125 -49.273438 105.25 -52.445312 105.25 -55.9375 C 105.25 -59.976562 103.410156 -63.007812 99.734375 -65.03125 C 96.066406 -67.050781 89.363281 -69.53125 79.625 -72.46875 L 71.640625 -74.671875 C 53.453125 -80.179688 38.203125 -87.523438 25.890625 -96.703125 C 13.585938 -105.890625 7.4375 -119.207031 7.4375 -136.65625 C 7.4375 -148.226562 10.554688 -158.46875 16.796875 -167.375 C 23.046875 -176.289062 31.632812 -183.132812 42.5625 -187.90625 C 53.5 -192.6875 65.765625 -195.078125 79.359375 -195.078125 C 93.679688 -195.078125 106.675781 -192.410156 118.34375 -187.078125 C 130.007812 -181.753906 139.191406 -174.222656 145.890625 -164.484375 C 152.597656 -154.753906 155.953125 -143.644531 155.953125 -131.15625 L 155.953125 -129.78125 C 155.953125 -126.289062 154.207031 -124.546875 150.71875 -124.546875 L 110.21875 -124.546875 C 106.726562 -124.546875 104.984375 -125.28125 104.984375 -126.75 L 104.984375 -128.953125 C 104.984375 -134.460938 102.5 -139.46875 97.53125 -143.96875 C 92.570312 -148.46875 85.867188 -150.71875 77.421875 -150.71875 C 71.546875 -150.71875 66.90625 -149.519531 63.5 -147.125 C 60.101562 -144.738281 58.40625 -141.4375 58.40625 -137.21875 C 58.40625 -133.90625 59.644531 -131.097656 62.125 -128.796875 C 64.613281 -126.503906 68.425781 -124.300781 73.5625 -122.1875 C 78.707031 -120.082031 86.609375 -117.375 97.265625 -114.0625 C 98.734375 -113.519531 105.207031 -111.546875 116.6875 -108.140625 C 128.164062 -104.742188 137.757812 -98.59375 145.46875 -89.6875 C 153.1875 -80.78125 157.046875 -69.988281 157.046875 -57.3125 C 157.046875 -45.375 153.921875 -34.90625 147.671875 -25.90625 C 141.429688 -16.90625 132.660156 -9.96875 121.359375 -5.09375 C 110.066406 -0.226562 97.078125 2.203125 82.390625 2.203125 Z M 82.390625 2.203125 "/></g></g></g><g clip-path="url(#2c0a9ff22d)"><path fill="#ffffff" d="M 267.8125 310.175781 C 267.976562 308.425781 267.949219 306.78125 267.917969 305.972656 L 266.03125 309.242188 L 266.035156 309.246094 C 266.035156 309.246094 266.03125 309.246094 266.027344 309.25 L 266.019531 309.261719 L 266.007812 309.261719 C 265.777344 309.414062 263.980469 310.589844 261.851562 311.5625 C 260.515625 312.175781 259.308594 312.589844 258.265625 312.792969 C 257.59375 312.925781 256.988281 312.96875 256.449219 312.925781 C 258.347656 314.792969 260.945312 315.941406 263.816406 315.941406 C 264.605469 315.941406 265.371094 315.855469 266.109375 315.691406 C 266.5 315.234375 266.828125 314.605469 267.097656 313.820312 C 267.433594 312.839844 267.675781 311.613281 267.8125 310.175781 Z M 267.8125 310.175781 " fill-opacity="1" fill-rule="nonzero"/></g><g clip-path="url(#20740e7635)"><path fill="#ffffff" d="M 261.609375 301.625 L 261.621094 301.625 C 261.855469 301.472656 263.652344 300.296875 265.777344 299.324219 C 267.117188 298.710938 268.324219 298.296875 269.363281 298.09375 C 270.039062 297.960938 270.644531 297.917969 271.179688 297.960938 C 269.285156 296.09375 266.683594 294.941406 263.816406 294.941406 C 263.027344 294.941406 262.257812 295.03125 261.519531 295.195312 C 261.132812 295.652344 260.800781 296.277344 260.53125 297.066406 C 260.195312 298.046875 259.957031 299.269531 259.820312 300.710938 C 259.652344 302.460938 259.679688 304.105469 259.710938 304.914062 L 261.597656 301.644531 L 261.597656 301.640625 C 261.597656 301.640625 261.601562 301.640625 261.605469 301.636719 Z M 261.609375 301.625 " fill-opacity="1" fill-rule="nonzero"/></g><g clip-path="url(#51653feed1)"><path fill="#ffffff" d="M 269.429688 298.410156 C 268.414062 298.609375 267.230469 299.015625 265.917969 299.617188 C 264.320312 300.347656 262.910156 301.191406 262.222656 301.625 L 265.996094 301.625 L 266 301.621094 C 266 301.621094 266.003906 301.621094 266.007812 301.625 L 266.019531 301.625 L 266.027344 301.632812 C 266.273438 301.757812 268.191406 302.726562 270.097656 304.082031 C 271.296875 304.9375 272.257812 305.773438 272.957031 306.574219 C 273.40625 307.09375 273.75 307.597656 273.980469 308.082031 C 274.199219 307.238281 274.316406 306.355469 274.316406 305.445312 C 274.316406 302.699219 273.265625 300.203125 271.539062 298.332031 C 270.949219 298.226562 270.246094 298.25 269.429688 298.410156 Z M 269.429688 298.410156 " fill-opacity="1" fill-rule="nonzero"/></g><g clip-path="url(#48082885e4)"><path fill="#ffffff" d="M 272.710938 306.789062 C 272.03125 306.007812 271.089844 305.1875 269.914062 304.351562 C 268.480469 303.332031 267.042969 302.53125 266.324219 302.152344 L 268.210938 305.421875 L 268.21875 305.421875 C 268.21875 305.421875 268.21875 305.425781 268.21875 305.433594 L 268.222656 305.441406 L 268.21875 305.453125 C 268.234375 305.730469 268.355469 307.875 268.132812 310.203125 C 267.996094 311.667969 267.75 312.917969 267.40625 313.925781 C 267.183594 314.574219 266.917969 315.121094 266.613281 315.566406 C 270.046875 314.621094 272.777344 311.96875 273.839844 308.582031 C 273.636719 308.015625 273.257812 307.414062 272.710938 306.789062 Z M 272.710938 306.789062 " fill-opacity="1" fill-rule="nonzero"/></g><g clip-path="url(#fdf855ad25)"><path fill="#ffffff" d="M 258.203125 312.476562 C 259.21875 312.277344 260.398438 311.871094 261.714844 311.269531 C 263.3125 310.539062 264.722656 309.691406 265.410156 309.261719 L 261.636719 309.261719 L 261.632812 309.265625 C 261.632812 309.265625 261.628906 309.261719 261.625 309.261719 L 261.613281 309.261719 L 261.605469 309.25 C 261.355469 309.128906 259.441406 308.160156 257.535156 306.804688 C 256.335938 305.949219 255.375 305.113281 254.675781 304.3125 C 254.222656 303.792969 253.882812 303.289062 253.652344 302.804688 C 253.433594 303.644531 253.316406 304.53125 253.316406 305.441406 C 253.316406 308.1875 254.367188 310.683594 256.089844 312.554688 C 256.679688 312.660156 257.386719 312.632812 258.203125 312.476562 Z M 258.203125 312.476562 " fill-opacity="1" fill-rule="nonzero"/></g><g clip-path="url(#2ec49151f6)"><path fill="#ffffff" d="M 254.917969 304.097656 C 255.597656 304.878906 256.542969 305.699219 257.71875 306.535156 C 259.148438 307.554688 260.589844 308.355469 261.304688 308.734375 L 259.417969 305.464844 L 259.414062 305.464844 C 259.414062 305.464844 259.414062 305.460938 259.414062 305.453125 L 259.40625 305.445312 L 259.414062 305.433594 C 259.394531 305.15625 259.273438 303.011719 259.496094 300.683594 C 259.636719 299.21875 259.882812 297.96875 260.226562 296.960938 C 260.449219 296.3125 260.714844 295.765625 261.019531 295.320312 C 257.582031 296.265625 254.851562 298.917969 253.792969 302.304688 C 253.996094 302.871094 254.371094 303.472656 254.917969 304.097656 Z M 254.917969 304.097656 " fill-opacity="1" fill-rule="nonzero"/></g></svg>